<svg xmlns="http://www.w3.org/2000/svg" width="128" height="128" viewBox="0 0 128 128" role="img" aria-labelledby="title desc">
  <title id="title">Popcorn Ceiling Removal Burlington</title>
  <desc id="desc">A professional logo badge reading Popcorn Ceiling Removal with a smooth ceiling icon.</desc>
  <defs>
    <linearGradient id="bg" x1="18" y1="14" x2="110" y2="116" gradientUnits="userSpaceOnUse">
      <stop offset="0" stop-color="#0f172a"/>
      <stop offset=".62" stop-color="#155e63"/>
      <stop offset="1" stop-color="#57534e"/>
    </linearGradient>
    <linearGradient id="shine" x1="35" y1="28" x2="93" y2="28" gradientUnits="userSpaceOnUse">
      <stop offset="0" stop-color="#f8fafc"/>
      <stop offset="1" stop-color="#d6d3d1"/>
    </linearGradient>
    <filter id="shadow" x="-20%" y="-20%" width="140%" height="140%">
      <feDropShadow dx="0" dy="8" stdDeviation="8" flood-color="#0f172a" flood-opacity=".18"/>
    </filter>
  </defs>

  <rect x="8" y="8" width="112" height="112" rx="22" fill="url(#bg)" filter="url(#shadow)"/>
  <rect x="17" y="17" width="94" height="94" rx="16" fill="#fff"/>

  <path d="M35 36h58c3.5 0 6 2.5 6 6s-2.5 6-6 6H35c-3.5 0-6-2.5-6-6s2.5-6 6-6Z" fill="url(#shine)" stroke="#155e63" stroke-width="3"/>
  <path d="M42 50c4 7 11 10 19 10h6c8 0 15-3 19-10" fill="none" stroke="#155e63" stroke-width="4" stroke-linecap="round"/>
  <path d="M42 32 64 22l22 10" fill="none" stroke="#0f172a" stroke-width="5" stroke-linecap="round" stroke-linejoin="round"/>

  <text x="64" y="77" text-anchor="middle" font-family="Arial, Helvetica, sans-serif" font-size="13" font-weight="800" letter-spacing="1.4" fill="#0f172a">POPCORN</text>
  <text x="64" y="92" text-anchor="middle" font-family="Arial, Helvetica, sans-serif" font-size="12" font-weight="800" letter-spacing="1.1" fill="#155e63">CEILING</text>
  <text x="64" y="106" text-anchor="middle" font-family="Arial, Helvetica, sans-serif" font-size="10" font-weight="800" letter-spacing="1.2" fill="#57534e">REMOVAL</text>
</svg>
